# xmcd
#
# Track frame offsets:
#	182
#	32030
#	56852
#	80127
#	96827
#	109867
#	152687
#	181032
#	202400
#	217620
#	237022
#	252337
#
# Disc length: 3708 seconds
#
# Revision: 9
# Processed by: cddbd v1.5.2PL0 Copyright (c) Steve Scherf et al.
# Submitted via: audiograbber 1.83.01
#
DISCID=a10e7a0c
DTITLE=Paul Simon - Concert In The Park - Disc 2
DYEAR=1991
DGENRE=Rock
TTITLE0=The Coast
TTITLE1=Graceland
TTITLE2=You Can Call Me Al
TTITLE3=Still Crazy After All These Years
TTITLE4=Loves Me Like A Rock
TTITLE5=Diamonds On The Soles Of Her Shoes
TTITLE6=Hearts And Bones
TTITLE7=Late In The Evening
TTITLE8=America
TTITLE9=The Boxer
TTITLE10=Cecilia
TTITLE11=The Sound Of Silence
EXTD=
EXTT0=
EXTT1=
EXTT2=
EXTT3=
EXTT4=
EXTT5=
EXTT6=
EXTT7=
EXTT8=
EXTT9=
EXTT10=
EXTT11=
PLAYORDER=
